<?xml version="1.0" ?><svg id="Layer_1_1_" style="enable-background:new 0 0 64 64;" version="1.1" viewBox="0 0 64 64" xml:space="preserve" xmlns="http://www.w3.org/2000/svg" xmlns:xlink="http://www.w3.org/1999/xlink"><g/><path d="M49.889,19.548l-9.715-8.831l2.762-7.365c0.149-0.398,0.03-0.847-0.296-1.12c-0.327-0.271-0.79-0.308-1.155-0.089L37,4.834  l-4.485-2.691c-0.317-0.19-0.712-0.19-1.029,0L27,4.834l-4.485-2.691C22.15,1.924,21.687,1.96,21.36,2.231  c-0.327,0.272-0.445,0.722-0.296,1.12l2.762,7.365l-9.715,8.831C6.414,26.545,2,36.523,2,46.925V57c0,2.757,2.243,5,5,5h50  c2.757,0,5-2.243,5-5V46.925C62,36.523,57.586,26.545,49.889,19.548z M26.485,6.857c0.317,0.19,0.712,0.19,1.029,0L32,4.166  l4.485,2.691c0.317,0.19,0.712,0.19,1.029,0l2.543-1.526L38.307,10H25.693l-1.75-4.668L26.485,6.857z M60,57c0,1.654-1.346,3-3,3H7  c-1.654,0-3-1.346-3-3V46.925c0-9.839,4.176-19.279,11.457-25.898L25.387,12h13.227l9.93,9.027C55.824,27.646,60,37.086,60,46.925  V57z"/><path d="M32,41c-4.411,0-8,3.589-8,8s3.589,8,8,8s8-3.589,8-8S36.411,41,32,41z M32,55c-3.309,0-6-2.691-6-6s2.691-6,6-6  s6,2.691,6,6S35.309,55,32,55z"/><path d="M34,46h-4c-0.552,0-1,0.448-1,1v4c0,0.552,0.448,1,1,1h4c0.552,0,1-0.448,1-1v-4C35,46.448,34.552,46,34,46z M33,50h-2v-2h2  V50z"/><path d="M14,41c-4.411,0-8,3.589-8,8s3.589,8,8,8s8-3.589,8-8S18.411,41,14,41z M14,55c-3.309,0-6-2.691-6-6s2.691-6,6-6  s6,2.691,6,6S17.309,55,14,55z"/><path d="M16,46h-4c-0.552,0-1,0.448-1,1v4c0,0.552,0.448,1,1,1h4c0.552,0,1-0.448,1-1v-4C17,46.448,16.552,46,16,46z M15,50h-2v-2h2  V50z"/><path d="M49,32c0-4.411-3.589-8-8-8s-8,3.589-8,8s3.589,8,8,8S49,36.411,49,32z M41,38c-3.309,0-6-2.691-6-6s2.691-6,6-6  s6,2.691,6,6S44.309,38,41,38z"/><path d="M43,29h-4c-0.552,0-1,0.448-1,1v4c0,0.552,0.448,1,1,1h4c0.552,0,1-0.448,1-1v-4C44,29.448,43.552,29,43,29z M42,33h-2v-2h2  V33z"/><path d="M31,32c0-4.411-3.589-8-8-8s-8,3.589-8,8s3.589,8,8,8S31,36.411,31,32z M23,38c-3.309,0-6-2.691-6-6s2.691-6,6-6  s6,2.691,6,6S26.309,38,23,38z"/><path d="M25,29h-4c-0.552,0-1,0.448-1,1v4c0,0.552,0.448,1,1,1h4c0.552,0,1-0.448,1-1v-4C26,29.448,25.552,29,25,29z M24,33h-2v-2h2  V33z"/><path d="M42,49c0,4.411,3.589,8,8,8s8-3.589,8-8s-3.589-8-8-8S42,44.589,42,49z M50,43c3.309,0,6,2.691,6,6s-2.691,6-6,6  s-6-2.691-6-6S46.691,43,50,43z"/><path d="M48,52h4c0.552,0,1-0.448,1-1v-4c0-0.552-0.448-1-1-1h-4c-0.552,0-1,0.448-1,1v4C47,51.552,47.448,52,48,52z M49,48h2v2h-2  V48z"/><path d="M47,9c2.206,0,4,1.794,4,4c0,0.552,0.448,1,1,1s1-0.448,1-1c0-2.206,1.794-4,4-4c0.552,0,1-0.448,1-1s-0.448-1-1-1  c-2.206,0-4-1.794-4-4c0-0.552-0.448-1-1-1s-1,0.448-1,1c0,2.206-1.794,4-4,4c-0.552,0-1,0.448-1,1S46.448,9,47,9z M52,6.313  C52.444,6.981,53.019,7.556,53.687,8C53.019,8.444,52.444,9.019,52,9.687C51.556,9.019,50.981,8.444,50.313,8  C50.981,7.556,51.556,6.981,52,6.313z"/></svg>