<?xml version="1.0" ?><!DOCTYPE svg  PUBLIC '-//W3C//DTD SVG 1.0//EN'  'http://www.w3.org/TR/2001/REC-SVG-20010904/DTD/svg10.dtd'><svg height="110px" style="enable-background:new 0 0 110 110;" version="1.0" viewBox="0 0 110 110" width="110px" xml:space="preserve" xmlns="http://www.w3.org/2000/svg" xmlns:xlink="http://www.w3.org/1999/xlink"><g id="Artboard"/><g id="Multicolor"><circle cx="55" cy="55" r="55" style="fill:#32BEA6;"/><g><path d="M79,23c4.42,0,8,3.58,8,8v48c0,4.42-3.58,8-8,8H31c-4.42,0-8-3.58-8-8V31c0-4.42,3.58-8,8-8H79z" style="fill:#FFFFFF;"/><path d="M79,23H31c-4.418,0-8,3.582-8,8v4h64v-4C87,26.582,83.418,23,79,23z" style="fill:#059BBF;"/><rect height="14" style="fill:#6FDAF1;" width="14" x="31" y="41"/><rect height="2" style="fill:#E2E4E5;" width="14" x="31" y="59"/><rect height="2" style="fill:#E2E4E5;" width="14" x="31" y="64"/><rect height="2" style="fill:#E2E4E5;" width="14" x="31" y="69"/><rect height="2" style="fill:#E2E4E5;" width="9" x="31" y="74"/><circle cx="38" cy="47" r="4" style="fill:#21B2D1;"/><path d="M45,55v-1.75C44,52.125,42,51,38,51s-6,1.125-7,2.25V55H45z" style="fill:#21B2D1;"/><path d="M32.778,26.778h0.889V25h-0.889c-1.957,0-2.667,1.595-2.667,2.667v0.889h-1.778v1.778h1.778V33    h1.778v-2.667h1.778v-1.778h-1.778v-0.878C31.899,27.267,32.062,26.778,32.778,26.778z" style="fill:#FFFFFF;"/><rect height="14" style="fill:#E2E4E5;" width="28" x="51" y="41"/><rect height="7" style="fill:#E2E4E5;" width="28" x="51" y="60"/><rect height="9" style="fill:#E2E4E5;" width="28" x="51" y="71"/></g></g></svg>