<?xml version="1.0" ?><svg id="Layer_1" style="enable-background:new 0 0 137.3 139.3;" version="1.1" viewBox="0 0 137.3 139.3" xml:space="preserve" xmlns="http://www.w3.org/2000/svg" xmlns:xlink="http://www.w3.org/1999/xlink"><style type="text/css">
	.st0{fill:#2C8AAA;}
	.st1{opacity:0.19;clip-path:url(#XMLID_40_);fill:#070808;}
	.st2{fill:#215C6D;}
	.st3{fill:#FFFFFF;}
	.st4{fill:#3B4A51;}
	.st5{fill:#FFFFFF;stroke:#235C6D;stroke-miterlimit:10;}
	.st6{fill:none;stroke:#070808;stroke-miterlimit:10;}
</style><path class="st0" d="M135.2,69.5c0,36.6-28.6,66.2-65.2,66.2S2.8,106.1,2.8,69.5S33.5,3.3,70,3.3  S135.2,32.9,135.2,69.5z" id="XMLID_310_"/><g id="XMLID_302_"><defs><path d="M135.4,69.5c0,36.6-28.6,66.2-65.2,66.2S3,106.1,3,69.5S33.6,3.3,70.2,3.3S135.4,32.9,135.4,69.5z" id="XMLID_303_"/></defs><clipPath id="XMLID_40_"><use style="overflow:visible;" xlink:href="#XMLID_303_"/></clipPath><polygon class="st1" id="XMLID_305_" points="94.9,41.3 136.9,81.7 135.4,135.7 90.7,133.8 45.2,97.7  "/></g><g id="XMLID_327_"><circle class="st2" cx="69.2" cy="68.7" id="XMLID_355_" r="37.6"/><circle class="st3" cx="69.1" cy="68.6" id="XMLID_354_" r="32.5"/><path class="st4" d="M69.2,66.8L55.9,54c0,0-2.3-0.3-1.7,1.7l13.1,12.6l0-0.1c0.1-0.3,0.1-0.5,0.8-1   C68.4,66.9,68.8,66.8,69.2,66.8L69.2,66.8z" id="XMLID_351_"/><path class="st4" d="M70.9,69.6l18.9-0.1c0,0,1.7-0.8-0.1-1.8L70.9,68c0,0,0.1,0.4,0.1,0.8   C71.1,69.1,70.9,69.6,70.9,69.6z" id="XMLID_347_"/><g id="XMLID_329_"><g id="XMLID_167_"><g id="XMLID_170_"><rect class="st2" height="22.5" id="XMLID_171_" width="0.6" x="68.8" y="64"/></g><circle class="st2" cx="69.1" cy="64.2" id="XMLID_169_" r="0.5"/><circle class="st2" cx="69.1" cy="86.3" id="XMLID_168_" r="0.6"/></g></g><circle class="st5" cx="69.2" cy="68.7" id="XMLID_328_" r="2.1"/></g><path class="st6" d="M0.9,135.7" id="XMLID_33_"/></svg>